<svg xmlns="http://www.w3.org/2000/svg" xmlns:svgjs="http://svgjs.com/svgjs" xmlns:xlink="http://www.w3.org/1999/xlink" width="288" height="288"><svg xmlns="http://www.w3.org/2000/svg" width="288" height="288" data-name="Layer 1" viewBox="0 0 64 64"><path fill="#200082" d="M42,2H6A1,1,0,0,0,5,3V53a1,1,0,0,0,1,1H42a1,1,0,0,0,1-1V3A1,1,0,0,0,42,2ZM9,15a1,1,0,0,1,1-1H20a1,1,0,0,1,1,1V25a1,1,0,0,1-1,1H10a1,1,0,0,1-1-1ZM36,40H12a1,1,0,0,1,0-2H36a1,1,0,0,1,0,2Zm1,3a1,1,0,0,1-1,1H26a1,1,0,0,1,0-2H36A1,1,0,0,1,37,43Zm-1-7H12a1,1,0,0,1,0-2H36a1,1,0,0,1,0,2Zm0-4H12a1,1,0,0,1,0-2H36a1,1,0,0,1,0,2ZM10,42H20a1,1,0,0,1,0,2H10a1,1,0,0,1,0-2Zm12,6H10a1,1,0,0,1,0-2H22a1,1,0,0,1,0,2Zm16,0H26a1,1,0,0,1,0-2H38a1,1,0,0,1,0,2Zm0-25H26a1,1,0,0,1,0-2H38a1,1,0,0,1,0,2ZM25,18a1,1,0,0,1,1-1H36a1,1,0,0,1,0,2H26A1,1,0,0,1,25,18Zm14-7a1,1,0,0,1-1,1H22a1,1,0,0,1-1-1V7a1,1,0,0,1,1-1H38a1,1,0,0,1,1,1Z" class="color000 svgShape"/><path fill="#200082" d="M50,6H45V54.92A1.09,1.09,0,0,1,43.89,56H13v1a1,1,0,0,0,1,1H50a1,1,0,0,0,1-1V7A1,1,0,0,0,50,6Z" class="color000 svgShape"/><path fill="#200082" d="M58,10H53V58.92A1.09,1.09,0,0,1,51.89,60H21v1a1,1,0,0,0,1,1H58a1,1,0,0,0,1-1V11A1,1,0,0,0,58,10Z" class="color000 svgShape"/></svg></svg>