<svg xmlns="http://www.w3.org/2000/svg" width="655.359" height="655.359" fill-rule="evenodd" clip-rule="evenodd" image-rendering="optimizeQuality" shape-rendering="geometricPrecision" text-rendering="geometricPrecision" viewBox="0 0 6.827 6.827"><defs><clipPath id="a"><path d="M3.413 0a3.413 3.413 0 1 1 0 6.827 3.413 3.413 0 0 1 0-6.827z"/></clipPath></defs><path fill="#388e3c" d="M3.413 0a3.413 3.413 0 1 1 0 6.827 3.413 3.413 0 0 1 0-6.827z"/><g clip-path="url(#a)"><path fill="#2e6d31" d="M5.097 1.485l3.786 3.786.003.004.003.004.003.004.003.004.002.003.003.005.002.004.003.004.002.004.002.004.002.005.002.004.002.004.001.005.002.004.002.005v.005l.002.004.001.005.001.005.001.005.001.005v.004l.001.005v.005l.001.005v.01L5.142 1.61v-.02l-.001-.005-.001-.005v-.005l-.002-.004v-.005l-.002-.005-.001-.005-.002-.004-.001-.005-.002-.004-.002-.005-.001-.004-.002-.005-.002-.004-.002-.004-.003-.005-.002-.004-.002-.004-.003-.004-.003-.004-.002-.004-.003-.003-.003-.004zM5.142 1.61l3.786 3.786v2.706L5.142 4.315z"/><path fill="#2e6d31" d="m5.142 4.315 3.786 3.787V8.6L5.142 4.813z"/><path fill="#2e6d31" d="M5.142 4.813 8.928 8.6v.403L5.142 5.216z"/><path fill="#2e6d31" d="m5.142 5.216 3.786 3.787v.02l-.001.005v.005l-.002.005v.004l-.002.005v.005l-.002.005-.001.004-.002.005-.002.004-.001.005-.002.004-.002.005-.002.004-.002.004-.002.004-.003.005-.002.004-.003.004-.002.004-.003.004-.003.003-.003.004-.003.004-.003.003-.003.004-.003.003-.003.004-3.787-3.786.004-.004.003-.003.003-.004.003-.003.003-.004.003-.004.003-.004.002-.004.003-.004.003-.004.002-.004.002-.004.003-.004.002-.004.002-.005.002-.004.001-.004.002-.005.002-.005.001-.004.002-.005.001-.004.001-.005.001-.005.001-.005v-.005l.002-.005V5.227l.001-.005z"/><path fill="#2e6d31" d="m5.084 5.356 3.787 3.786-.004.003-.003.003-.004.003-.003.004-.004.003-.004.002-.004.003-.003.003-.004.002-.004.003-.005.002-.004.003-.004.002-.004.002-.005.002-.004.002-.004.002-.005.002-.004.001-.005.002-.005.001-.004.001-.005.002H8.77l-.005.002h-.005l-.004.001h-.005l-.005.001h-.015L4.945 5.414h.02l.005-.001h.005l.005-.002h.005l.005-.002h.004L5 5.405l.005-.002.004-.001.005-.002.004-.001.005-.002.004-.002.005-.002.004-.002.004-.003.004-.002.004-.002.004-.003.004-.002.004-.003.004-.003.004-.003.003-.003.004-.003.004-.003.003-.003z"/><path fill="#2e6d31" d="M4.945 5.413 8.732 9.2H5.668L1.88 5.413z"/><path fill="#2e6d31" d="M1.881 5.413 5.668 9.2h-.01l-.005-.001h-.005l-.005-.001h-.005l-.005-.001-.005-.001-.005-.001-.004-.002h-.005l-.005-.002-.004-.002-.005-.001-.004-.002-.005-.002-.004-.002-.005-.002-.004-.002-.004-.002-.004-.003-.004-.002-.004-.002-.004-.003-.004-.003-.004-.003-.004-.002-.003-.003-3.787-3.787.004.003.004.003.004.003.003.003.004.002.004.003.005.002.004.003.004.002.004.002.004.002.005.002.004.002.005.001.004.002.005.001.005.002.004.001.005.001.005.001.005.001.004.001h.005l.005.001h.005l.005.001h.005z"/><path fill="#2e6d31" d="M2.283 1.413h2.662a.196.196 0 0 1 .197.197V5.216a.196.196 0 0 1-.197.197H1.881a.196.196 0 0 1-.196-.197V1.61a.196.196 0 0 1 .196-.197h.402z"/></g><path fill="none" d="M3.413 0a3.413 3.413 0 1 1 0 6.827 3.413 3.413 0 0 1 0-6.827z"/><path fill="#fffffe" fill-rule="nonzero" d="M1.881 1.413h3.064a.196.196 0 0 1 .197.197v3.606a.196.196 0 0 1-.197.197H1.881a.196.196 0 0 1-.197-.197V1.61a.196.196 0 0 1 .197-.197zm3.064.125H1.881a.072.072 0 0 0-.072.072v3.606a.072.072 0 0 0 .072.072h3.064a.072.072 0 0 0 .072-.072V1.61a.072.072 0 0 0-.072-.072z"/><path fill="#fffffe" fill-rule="nonzero" d="M1.747 4.253a.063.063 0 0 0 0 .125H5.08a.063.063 0 0 0 0-.125H1.747z"/><path fill="#fffffe" fill-rule="nonzero" d="M2.345 1.476a.063.063 0 0 0-.125 0v2.84a.063.063 0 0 0 .125 0v-2.84zM2.746 2.347a.063.063 0 0 0 0 .125h1.251a.063.063 0 0 0 0-.125h-1.25zM2.746 2.683a.063.063 0 0 0 0 .125H4.12a.063.063 0 0 0 0-.125H2.746zM2.746 3.019a.063.063 0 0 0 0 .125h1.54a.063.063 0 0 0 0-.125h-1.54zM1.747 4.75a.063.063 0 0 0 0 .126H5.08a.063.063 0 0 0 0-.125H1.747z"/></svg>