<svg xmlns="http://www.w3.org/2000/svg" xmlns:svgjs="http://svgjs.com/svgjs" xmlns:xlink="http://www.w3.org/1999/xlink" width="288" height="288"><svg xmlns="http://www.w3.org/2000/svg" width="288" height="288" enable-background="new 0 0 512 512" viewBox="0 0 512 512"><path fill="#364f6b" d="M453.188 258.493c.187-23.266-16.257-44.619-38.007-52.712 18-21.175 17.085-52.646-2.696-72.717-14.438-14.639-36.019-20.171-56.488-12.952-2.149-27.686-25.239-49.72-53.903-49.72-19.48 0-36.57 10.394-46.086 25.934-9.463-15.45-26.367-25.934-46.554-25.934-14.446.118-27.976 5.836-38.11 16.109-9.025 9.156-14.358 20.951-15.34 33.604-20.361-7.179-41.983-1.747-56.488 12.959-20.026 20.319-20.454 51.831-2.698 72.717-21.748 8.095-38.192 29.449-38.005 52.712.197 23.545 15.283 43.417 36.57 50.606-6.575 9.198-10.131 20.16-10.038 31.676.305 36.066 35.66 62.189 70.702 50.861 2.07 27.94 25.441 49.974 53.845 49.974 18.58 0 35.943-9.307 46.11-25.807 10.229 16.609 27.664 25.807 46.109 25.807 28.402 0 51.771-22.031 53.845-49.975 35.036 11.323 70.397-14.775 70.702-50.868.094-11.495-3.453-22.441-10.012-31.63C437.855 301.982 452.99 282.079 453.188 258.493zM209.891 425.61c-24.272 0-42.096-22.517-37.343-45.226 0-.004 0-.006 0-.009 1.393-6.684-6.18-12.26-12.206-8.319-.006.004-.015.004-.021.008-24.842 16.36-58.728-1.286-58.976-31.422-.264-34.24 42.037-51.564 65.89-26.25 3.024 3.227 8.086 3.375 11.304.336 3.218-3.024 3.367-8.094.336-11.304-6.634-7.046-15.164-12.071-24.297-14.771 6.604-11.526 18.979-19.168 32.672-19.283 4.421-.04 7.977-3.649 7.937-8.062-.04-4.399-3.609-7.937-8-7.937-.024 0-.047 0-.062 0-21.608.178-40.956 13.533-49.241 33.055-10.43.293-20.356 3.473-28.818 9.222-19.214-1.848-34.096-17.678-34.253-37.278-.159-19.807 17.687-38.185 37.903-39.785 7.567 4.023 16.188 6.316 25.332 6.316 10.208 0 19.741-2.861 28.049-7.928 10.584 10.622 24.295 15.959 38.404 15.959 5.108 0 8.35-3.859 8.32-8.055-.029-4.107-3.207-7.946-8.32-7.946-21 0-38.012-16.861-38.141-37.672-.031-4.399-3.602-7.946-8-7.946-.016 0-.031 0-.055 0-4.414.031-7.977 3.633-7.946 8.055.057 8.762 2.227 17.182 6.218 24.72-5.68 3.168-11.992 4.81-18.531 4.81-33.622 0-50.73-40.676-27.14-64.601 13.462-13.653 34.377-14.829 49.14-4.352 5.96 4.235 14.32-1.203 12.391-8.57-.398-2.157-.609-4.414-.625-6.711-.178-20.957 16.717-38.112 37.765-38.273 20.742.125 38.211 16.719 38.383 37.594l.002 21.612c-5.813-3.7-12.597-5.855-19.728-5.667-20.133.161-36.366 16.59-36.187 36.781.04 4.39 3.609 7.93 8 7.93.024 0 .047 0 .071 0 4.414-.04 7.968-3.649 7.93-8.07-.097-11.274 8.948-20.543 20.32-20.641.055 0 .109 0 .172 0 8.862 0 16.677 5.707 19.426 14.01l.015 164.031c-7.12-3.105-15.906-4.846-25.424-4.837-18.941.155-42.549 8.781-42.391 26.915.047 5.217 3.896 7.841 7.807 7.915 4.087.079 8.241-2.624 8.193-8.057-.07-6.329 16.822-10.696 26.524-10.774 8.397 0 20.112 2 25.293 7.673l.003 34.53C248.163 408.297 231.215 425.61 209.891 425.61zM402.952 295.658c-8.465-5.759-18.398-8.944-28.835-9.236-8.287-19.522-27.633-32.877-49.241-33.055-.016 0-.04 0-.062 0-4.39 0-7.961 3.539-8 7.937-.039 4.414 3.516 8.024 7.937 8.062 13.672.115 26.03 7.734 32.641 19.23-9.172 2.693-17.603 7.748-24.266 14.824-3.031 3.211-2.882 8.281.336 11.304 3.211 3.039 8.281 2.891 11.304-.336 23.694-25.172 66.156-8.195 65.89 26.242-.249 30.112-34.117 47.801-58.976 31.43-.003-.002-.007-.002-.01-.004-5.934-3.896-13.636 1.503-12.216 8.315 0 .004 0 .006 0 .009.492 2.351.734 4.899.711 7.563-.172 20.836-17.211 37.664-38.063 37.664-21.231 0-38.264-17.203-38.086-38.344l.003-34.466c3.267-3.61 12.098-7.799 25.302-7.667 9.22.074 26.584 4.504 26.515 10.774-.04 4.421 3.516 8.031 7.93 8.07.024 0 .047 0 .071 0 4.39 0 7.961-3.539 8-7.93.16-18.256-23.673-26.762-42.382-26.915-9.631.031-18.375 1.747-25.433 4.809l.015-163.962c2.76-8.358 10.902-13.86 19.605-14.049 11.474.098 20.408 9.485 20.313 20.641-.04 4.421 3.516 8.031 7.93 8.07.024 0 .047 0 .071 0 4.39 0 7.961-3.539 8-7.93.178-20.141-16.003-36.62-36.18-36.781-.109 0-.211 0-.313 0-7.075 0-13.727 2.14-19.423 5.732l.002-21.606c.172-20.836 17.211-37.664 38.063-37.664 23.793 0 41.743 21.444 37.469 44.953-1.907 7.369 6.38 12.871 12.383 8.602 14.77-10.494 35.696-9.284 49.14 4.352 31.137 31.581-8.471 80.543-45.67 59.791 3.991-7.539 6.16-15.959 6.217-24.72.031-4.421-3.531-8.024-7.946-8.055-.024 0-.04 0-.055 0-4.399 0-7.968 3.547-8 7.946-.129 20.832-17.164 37.672-38.141 37.672-5.071 0-8.291 3.803-8.32 7.946-.029 4.156 3.166 8.055 8.32 8.055 14.095 0 27.811-5.328 38.404-15.959 16.664 10.162 36.847 10.402 53.379 1.612 20.217 1.599 38.064 19.977 37.905 39.785C437.03 278.021 422.071 293.89 402.952 295.658zM256 37.632c4.421 0 8-3.578 8-8V8c0-4.421-3.578-8-8-8-4.421 0-8 3.578-8 8v21.633C248 34.054 251.579 37.632 256 37.632zM256 474.368c-4.421 0-8 3.578-8 8V504c0 4.421 3.578 8 8 8 4.421 0 8-3.578 8-8v-21.633C264 477.946 260.421 474.368 256 474.368zM135.883 63.96c2.233 3.854 7.139 5.119 10.93 2.929 3.828-2.211 5.141-7.101 2.929-10.93L138.93 37.226c-2.219-3.82-7.125-5.133-10.93-2.929-3.828 2.211-5.141 7.101-2.929 10.93L135.883 63.96zM376.117 448.039c-2.219-3.828-7.125-5.141-10.93-2.929-3.828 2.211-5.141 7.101-2.929 10.93l10.812 18.734c2.233 3.854 7.139 5.119 10.93 2.929 3.828-2.211 5.141-7.101 2.929-10.93L376.117 448.039zM37.227 138.93l18.734 10.812c3.786 2.187 8.694.93 10.93-2.929 2.211-3.828.898-8.719-2.929-10.93l-18.734-10.812c-3.828-2.203-8.711-.89-10.93 2.929C32.086 131.828 33.398 136.719 37.227 138.93zM474.773 373.07l-18.734-10.812c-3.82-2.203-8.719-.89-10.93 2.929-2.211 3.828-.898 8.719 2.929 10.93l18.734 10.812c3.786 2.187 8.694.93 10.93-2.929C479.914 380.172 478.602 375.281 474.773 373.07zM37.632 256c0-4.421-3.578-8-8-8H8c-4.421 0-8 3.578-8 8 0 4.421 3.578 8 8 8h21.633C34.054 264 37.632 260.421 37.632 256zM504 248h-21.633c-4.421 0-8 3.578-8 8 0 4.421 3.578 8 8 8H504c4.421 0 8-3.578 8-8C512 251.579 508.422 248 504 248zM55.961 362.258L37.227 373.07c-3.828 2.211-5.141 7.101-2.929 10.93 2.233 3.854 7.139 5.119 10.93 2.929l18.734-10.812c3.828-2.211 5.141-7.101 2.929-10.93C64.68 361.368 59.773 360.054 55.961 362.258zM456.039 149.742l18.734-10.812c3.828-2.211 5.141-7.101 2.929-10.93-2.219-3.82-7.109-5.133-10.93-2.929l-18.734 10.812c-3.828 2.211-5.141 7.101-2.929 10.93C447.342 150.666 452.248 151.932 456.039 149.742zM146.812 445.109c-3.828-2.211-8.719-.898-10.93 2.929l-10.812 18.734c-2.211 3.828-.898 8.719 2.929 10.93 3.786 2.187 8.694.93 10.93-2.929l10.812-18.734C151.953 452.21 150.641 447.32 146.812 445.109zM365.188 66.891c3.786 2.187 8.694.93 10.93-2.929l10.812-18.734c2.211-3.828.898-8.719-2.929-10.93-3.828-2.203-8.719-.89-10.93 2.929l-10.812 18.734C360.047 59.79 361.359 64.68 365.188 66.891z" class="color000 svgShape"/></svg></svg>